<?xml version="1.0" encoding="UTF-8"?>
<svg width="164px" height="28px" viewBox="0 0 164 28" version="1.1" xmlns="http://www.w3.org/2000/svg" xmlns:xlink="http://www.w3.org/1999/xlink">
    <title>LogoHeader</title>
    <g id="Page-1" stroke="none" stroke-width="1" fill="none" fill-rule="evenodd">
        <g id="aurelia-start" transform="translate(-30.000000, -21.000000)" fill="#000000">
            <g id="LogoHeader" transform="translate(30.000000, 21.500000)">
                <path d="M19.2974485,12.4583751 L19.2974485,6.59207981 C19.2974485,5.31538071 18.8435041,4.23059401 17.9356154,3.33994264 C17.0284672,2.4485503 15.9472947,2.00248364 14.6928384,2.00248364 L6.60626033,2.00248364 C5.32514494,2.00248364 4.23730766,2.4485503 3.343489,3.33994264 C2.44892982,4.23059401 2.00239076,5.31538071 2.00239076,6.59207981 L2.00239076,12.4583751 L19.2974485,12.4583751 Z M21.2983582,27 L19.2974485,27 L19.2974485,14.4612292 L2.00239076,14.4612292 L2.00239076,27 L0,27 L0,6.60986319 C0,4.79373465 0.646481927,3.23842913 1.94166737,1.94320568 C3.23611228,0.647982217 4.79048291,0.000370487259 6.60626033,0.000370487259 L14.6928384,0.000370487259 C16.5078753,0.000370487259 18.0622459,0.647982217 19.3574313,1.94320568 C20.6511357,3.23842913 21.2983582,4.79373465 21.2983582,6.60986319 L21.2983582,27 Z" id="Fill-1"></path>
                <path d="M51.5249058,20.3902109 C51.5249058,22.2063394 50.8776833,23.761645 49.5832384,25.0568684 C48.2887935,26.3528329 46.7336823,26.9997036 44.919386,26.9997036 L32.8287669,26.9997036 C31.01373,26.9997036 29.4586189,26.3528329 28.1649145,25.0568684 C26.8697291,23.761645 26.2232471,22.2063394 26.2232471,20.3902109 L26.2232471,7.40974518e-05 L28.2248974,7.40974518e-05 L28.2248974,20.3902109 C28.2248974,21.6713558 28.6714364,22.7605884 29.5659956,23.6549446 C30.4598143,24.5500419 31.5476515,24.9968495 32.8287669,24.9968495 L44.919386,24.9968495 C46.1731018,24.9968495 47.2542743,24.5500419 48.162163,23.6549446 C49.0700517,22.7605884 49.5232555,21.6713558 49.5232555,20.3902109 L49.5232555,7.40974518e-05 L51.5249058,7.40974518e-05 L51.5249058,20.3902109 Z" id="Fill-4"></path>
                <path d="M75.3455061,8.69311305 L75.3455061,6.60949271 C75.3455061,5.32760679 74.8982265,4.2398562 74.0044079,3.34475898 C73.1098487,2.45040273 72.022752,2.00285412 70.7416366,2.00285412 L62.654318,2.00285412 C61.3991211,2.00285412 60.3186891,2.45040273 59.4115409,3.34475898 C58.5043928,4.2398562 58.0504484,5.32760679 58.0504484,6.60949271 L58.0504484,8.69311305 L58.0504484,13.2997516 L70.752004,13.2997516 C72.0294167,13.2997516 73.1150324,12.852203 74.00737,11.9578468 C74.8997076,11.0634905 75.3455061,9.974258 75.3455061,8.69311305 L75.3455061,8.69311305 Z M77.3471564,26.9996295 L75.3455061,26.9996295 L75.3455061,19.9092443 C75.3455061,18.6273584 74.8997076,17.5396078 74.00737,16.6445106 C73.1150324,15.7501544 72.0294167,15.3026058 70.752004,15.3026058 L58.0504484,15.3026058 L58.0504484,26.9996295 L56.0480577,26.9996295 L56.0480577,6.60949271 C56.0480577,4.79410514 56.6952801,3.23805865 57.989725,1.94283519 C59.2849105,0.647611729 60.8385406,0 62.654318,0 L70.7416366,0 C72.5559329,0 74.1103036,0.647611729 75.405489,1.94283519 C76.6999339,3.23805865 77.3471564,4.79410514 77.3471564,6.60949271 L77.3471564,8.69311305 C77.3471564,11.1235095 76.3067129,12.9922472 74.224345,14.3008082 C76.3067129,15.6093692 77.3471564,17.4795889 77.3471564,19.9092443 L77.3471564,26.9996295 Z" id="Fill-6"></path>
                <path d="M103.529748,26.9996295 L88.8369101,26.9996295 C87.0218732,26.9996295 85.466762,26.3527588 84.1730576,25.0567943 C82.8778722,23.7615709 82.2313903,22.2062654 82.2313903,20.3901368 L82.2313903,19.1082509 C82.2313903,16.6785954 83.2725742,14.8091167 85.3542016,13.4998148 C83.2725742,12.1919947 82.2313903,10.321775 82.2313903,7.89137862 L82.2313903,6.60949271 C82.2313903,4.79410514 82.8778722,3.23805865 84.1730576,1.94283519 C85.466762,0.647611729 87.0218732,0 88.8369101,0 L103.529748,0 L103.529748,2.00285412 L88.8369101,2.00285412 C87.5824537,2.00285412 86.5012812,2.44892078 85.594133,3.34031313 C84.6869848,4.2309645 84.2330405,5.31501022 84.2330405,6.59170932 L84.2330405,7.86914939 C84.2330405,9.14584848 84.6869848,10.2298942 85.594133,11.1212866 C86.5012812,12.0119379 87.5824537,12.4580046 88.8369101,12.4580046 L96.9242286,12.4580046 L96.9242286,14.4615997 L88.8369101,14.4615997 C87.5824537,14.4615997 86.5012812,14.9106302 85.594133,15.8079504 C84.6869848,16.7060115 84.2330405,17.7989489 84.2330405,19.0852807 L84.2330405,20.3730944 C84.2330405,21.6594262 84.6869848,22.7523636 85.594133,23.6496837 C86.5012812,24.5477448 87.5824537,24.9967754 88.8369101,24.9967754 L103.529748,24.9967754 L103.529748,26.9996295 Z" id="Fill-8"></path>
                <path d="M128.671527,26.9996295 L115.37977,26.9996295 C113.563992,26.9996295 112.009622,26.3527588 110.715177,25.0567943 C109.420732,23.7615709 108.773509,22.2062654 108.773509,20.3901368 L108.773509,0 L110.775159,0 L110.775159,20.3901368 C110.775159,21.6720227 111.222439,22.7605143 112.116998,23.6548705 C113.010817,24.5499678 114.097914,24.9967754 115.37977,24.9967754 L128.671527,24.9967754 L128.671527,26.9996295 Z" id="Fill-10"></path>
                <polygon id="Fill-12" points="134.675959 26.9997777 136.677609 26.9997777 136.677609 0.000148194904 134.675959 0.000148194904"></polygon>
                <path d="M161.219411,12.4583751 L161.219411,6.59207981 C161.219411,5.31538071 160.765467,4.23059401 159.858319,3.33994264 C158.95043,2.4485503 157.869257,2.00248364 156.614801,2.00248364 L148.528223,2.00248364 C147.247108,2.00248364 146.15927,2.4485503 145.265452,3.33994264 C144.370892,4.23059401 143.924353,5.31538071 143.924353,6.59207981 L143.924353,12.4583751 L161.219411,12.4583751 Z M163.220321,27 L161.219411,27 L161.219411,14.4612292 L143.924353,14.4612292 L143.924353,27 L141.921963,27 L141.921963,6.60986319 C141.921963,4.79373465 142.568445,3.23842913 143.86363,1.94320568 C145.158075,0.647982217 146.712446,0.000370487259 148.528223,0.000370487259 L156.614801,0.000370487259 C158.429838,0.000370487259 159.984208,0.647982217 161.279394,1.94320568 C162.573098,3.23842913 163.220321,4.79373465 163.220321,6.60986319 L163.220321,27 Z" id="Fill-14"></path>
            </g>
        </g>
    </g>
</svg>