<?xml version="1.0" encoding="UTF-8" standalone="no"?>
<!-- Created with Inkscape (http://www.inkscape.org/) -->

<svg
   width="297mm"
   height="210mm"
   viewBox="0 0 297 210"
   version="1.1"
   id="svg5"
   inkscape:version="1.1 (c68e22c387, 2021-05-23)"
   sodipodi:docname="logo_banner.svg"
   xmlns:inkscape="http://www.inkscape.org/namespaces/inkscape"
   xmlns:sodipodi="http://sodipodi.sourceforge.net/DTD/sodipodi-0.dtd"
   xmlns="http://www.w3.org/2000/svg"
   xmlns:svg="http://www.w3.org/2000/svg">
  <sodipodi:namedview
     id="namedview7"
     pagecolor="#ffffff"
     bordercolor="#666666"
     borderopacity="1.0"
     inkscape:pageshadow="2"
     inkscape:pageopacity="0.0"
     inkscape:pagecheckerboard="0"
     inkscape:document-units="mm"
     showgrid="false"
     inkscape:zoom="1.5554293"
     inkscape:cx="674.41188"
     inkscape:cy="446.82198"
     inkscape:window-width="3840"
     inkscape:window-height="2050"
     inkscape:window-x="-12"
     inkscape:window-y="-12"
     inkscape:window-maximized="1"
     inkscape:current-layer="layer1" />
  <defs
     id="defs2" />
  <g
     inkscape:label="Ebene 1"
     inkscape:groupmode="layer"
     id="layer1">
    <g
       id="g2300"
       transform="translate(-180.47953,6.634021)">
      <path
         id="path1182-5"
         style="color:#000000;fill:#1a83d9;fill-rule:evenodd;stroke:none;stroke-width:8.99999;stroke-linecap:square;-inkscape-stroke:none;paint-order:stroke markers fill"
         d="m 352.50893,3.5199131 c -5.29618,0 -10.59244,1.999163 -14.59033,5.997051 l -5.94279,5.9427889 10.16476,10.16475 5.94279,-5.94278 c 2.53985,-2.53986 6.31077,-2.53986 8.85062,0 l 38.64467,38.64466 c 2.53985,2.53985 2.53986,6.31077 0,8.85063 l -8.70438,8.70437 -29.94029,29.939777 c -0.31748,0.31748 -0.65396,0.59543 -1.00511,0.83354 -0.35114,0.23811 -0.71673,0.43657 -1.09192,0.59531 -0.37519,0.15874 -0.76019,0.27772 -1.1498,0.35709 -0.38961,0.0794 -0.78432,0.11885 -1.17874,0.11885 -0.39442,0 -0.78861,-0.0395 -1.17822,-0.11885 -0.38962,-0.0794 -0.77462,-0.19835 -1.1498,-0.35709 -0.37519,-0.15874 -0.74079,-0.3572 -1.09193,-0.59531 -0.35114,-0.23811 -0.68762,-0.51606 -1.0051,-0.83354 l -5.56969,-5.56917 -6.36344,-6.363437 -2.02829,-2.0283 -1.77199,-1.7725 -6.36447,-6.36395 -7.84241,-7.84242 -8.70438,-8.70437 c -2.53986,-2.53986 -2.53986,-6.31078 0,-8.85063 l 16.17369,-16.17369 -10.16476,-10.16475 -16.17369,16.17317 c -7.52619,7.5262 -7.96582,19.65331 -1.32395,27.72027 h -0.004 c 0.41481,0.50392 0.85488,0.99338 1.32499,1.46348 l 16.54679,16.54679 6.36395,6.363957 3.80081,3.8008 6.36343,6.36343 5.56969,5.56969 c 0.49974,0.49974 1.01971,0.96833 1.55753,1.4056 0.53781,0.43727 1.09368,0.84321 1.66449,1.21801 0.57082,0.3748 1.15671,0.71861 1.75545,1.03095 0.59875,0.31233 1.21035,0.59297 1.83193,0.84284 0.62159,0.24987 1.25304,0.46889 1.89239,0.65629 0.63936,0.1874 1.28634,0.34326 1.93839,0.46819 0.65205,0.12493 1.3092,0.21865 1.96887,0.28112 0.65967,0.0625 1.32217,0.0941 1.98437,0.0941 0.66221,0 1.3242,-0.0316 1.98386,-0.0941 0.65967,-0.0625 1.31682,-0.15619 1.96887,-0.28112 0.65206,-0.12493 1.29903,-0.28079 1.93839,-0.46819 0.63935,-0.1874 1.2708,-0.40642 1.89239,-0.65629 0.62159,-0.24987 1.23319,-0.53051 1.83193,-0.84284 0.59874,-0.31234 1.18463,-0.65615 1.75545,-1.03095 0.57081,-0.3748 1.12668,-0.78074 1.66449,-1.21801 0.53782,-0.43727 1.0578,-0.90586 1.55753,-1.4056 l 38.64466,-38.644667 c 0.4701,-0.4701 0.91019,-0.95956 1.32499,-1.46348 h -0.004 c 6.64186,-8.06696 6.20224,-20.19406 -1.32395,-27.72027 L 367.09873,9.5169641 c -3.99789,-3.997891 -9.29363,-5.997051 -14.5898,-5.997051 z" />
      <path
         id="path1190-6"
         style="color:#000000;fill:#00c3c7;fill-rule:evenodd;stroke:none;stroke-width:8.99999;stroke-linecap:square;-inkscape-stroke:none;paint-order:stroke markers fill"
         d="m 305.45133,3.8914681 c -5.29692,-7.94e-4 -10.59398,1.997609 -14.59187,5.995498 L 252.21531,48.531123 c -7.99578,7.99578 -7.99319,21.18797 0.003,29.18375 l 38.64467,38.644657 c 7.99578,7.99579 21.18487,7.99578 29.18064,0 l 5.93917,-5.93917 -10.16526,-10.16527 -5.93918,5.93917 c -2.53985,2.53986 -6.31025,2.53985 -8.8501,0 L 262.38316,67.549593 c -2.53985,-2.53984 -2.54296,-6.31334 -0.003,-8.8532 l 38.64468,-38.64467 c 2.53985,-2.53986 6.31335,-2.53675 8.8532,0.003 l 38.64467,38.64467 c 2.53986,2.53986 2.53985,6.31026 0,8.85011 l -16.17369,16.17369 10.16527,10.16527 16.17369,-16.17369 c 7.99577,-7.99578 7.99578,-21.18487 0,-29.18065 L 320.04321,9.8895511 c -3.99789,-3.997889 -9.29495,-5.997332 -14.59188,-5.998083 z" />
    </g>
    <g
       aria-label="SmartOxy"
       id="text3961-0"
       style="font-size:66.3356px;line-height:1.25;fill:#ffffff;stroke-width:0.690996">
      <path
         d="m 21.567117,147.58438 q 4.577157,0 7.827601,1.32671 3.250445,1.26037 6.301883,3.98013 l -3.449452,3.84747 q -2.587088,-2.05641 -5.107841,-2.9851 -2.454417,-0.99504 -5.306848,-0.99504 -3.582123,0 -5.903869,1.65839 -2.321746,1.65839 -2.321746,4.8425 0,1.99007 0.796027,3.38312 0.796028,1.32671 2.918767,2.45441 2.189075,1.12771 6.301882,2.38809 4.311814,1.32671 7.164245,2.85243 2.852431,1.52572 4.577157,4.24548 1.791061,2.65342 1.791061,6.76623 0,3.98013 -1.990068,7.03157 -1.923733,3.05144 -5.638526,4.77616 -3.648459,1.72473 -8.689964,1.72473 -9.485991,0 -15.5225311,-5.90387 l 3.4494513,-3.84746 q 2.7860948,2.25541 5.6385258,3.44945 2.852431,1.1277 6.368218,1.1277 4.245479,0 7.031574,-2.0564 2.786095,-2.12274 2.786095,-6.10288 0,-2.25541 -0.862363,-3.71479 -0.862362,-1.52572 -2.985102,-2.71976 -2.056403,-1.19404 -6.036539,-2.38808 -7.031574,-2.12274 -10.282019,-5.10784 -3.2504442,-2.9851 -3.2504442,-8.09295 0,-3.44945 1.7910612,-6.16921 1.857397,-2.71976 5.107841,-4.24548 3.31678,-1.52571 7.495923,-1.52571 z"
         style="font-family:'Fira Sans';-inkscape-font-specification:'Fira Sans';fill:#ffffff"
         id="path826" />
      <path
         d="m 81.202703,158.33074 q 4.311814,0 6.898902,2.91877 2.587089,2.85243 2.587089,7.76126 v 25.07486 h -6.102875 v -24.21249 q 0,-6.76623 -4.908835,-6.76623 -2.587088,0 -4.37815,1.52572 -1.791061,1.45938 -3.847465,4.64349 v 24.80951 h -6.102875 v -24.21249 q 0,-6.76623 -4.908835,-6.76623 -2.653424,0 -4.444485,1.52572 -1.791061,1.52571 -3.781129,4.64349 v 24.80951 h -6.102876 v -34.95886 h 5.240513 l 0.530685,5.10784 q 3.9138,-5.90387 10.083011,-5.90387 3.250445,0 5.505855,1.65839 2.321746,1.65839 3.31678,4.6435 2.056404,-3.05144 4.510821,-4.6435 2.520753,-1.65839 5.903869,-1.65839 z"
         style="font-family:'Fira Sans';-inkscape-font-specification:'Fira Sans';fill:#ffffff"
         id="path828" />
      <path
         d="m 126.50981,185.92635 q 0,2.12274 0.7297,3.18411 0.72969,0.99504 2.18907,1.52572 l -1.39305,4.24548 q -2.71976,-0.33168 -4.37815,-1.52572 -1.65839,-1.19404 -2.45441,-3.71479 -3.51579,5.24051 -10.41469,5.24051 -5.17418,0 -8.15928,-2.91877 -2.985104,-2.91876 -2.985104,-7.62859 0,-5.57219 3.980134,-8.55729 4.04647,-2.98511 11.40973,-2.98511 h 5.37318 v -2.58708 q 0,-3.7148 -1.79106,-5.30685 -1.79106,-1.59206 -5.50586,-1.59206 -3.84746,0 -9.41965,1.8574 l -1.52572,-4.44449 q 6.50089,-2.38808 12.07308,-2.38808 6.16921,0 9.22065,3.05144 3.05143,2.9851 3.05143,8.55729 z m -14.32849,4.37815 q 5.24052,0 8.22562,-5.43952 v -8.0266 h -4.57716 q -9.685,0 -9.685,7.16424 0,3.11777 1.52572,4.70983 1.52572,1.59205 4.51082,1.59205 z"
         style="font-family:'Fira Sans';-inkscape-font-specification:'Fira Sans';fill:#ffffff"
         id="path830" />
      <path
         d="m 154.23802,158.33074 q 1.85739,0 3.44945,0.39802 l -1.12771,5.9702 q -1.59205,-0.39801 -3.05144,-0.39801 -3.25044,0 -5.24051,2.38808 -1.99007,2.38808 -3.11777,7.42959 v 19.96701 h -6.10288 v -34.95886 h 5.24052 l 0.59702,7.09791 q 1.39304,-3.9138 3.78112,-5.90387 2.38809,-1.99007 5.5722,-1.99007 z"
         style="font-family:'Fira Sans';-inkscape-font-specification:'Fira Sans';fill:#ffffff"
         id="path832" />
      <path
         d="m 182.29795,192.49358 q -3.44945,2.38808 -7.8276,2.38808 -4.44449,0 -6.96524,-2.52075 -2.45442,-2.58709 -2.45442,-7.42959 V 163.8366 h -6.10287 v -4.70983 h 6.10287 v -7.89394 l 6.10288,-0.72969 v 8.62363 h 8.29195 l -0.66336,4.70983 h -7.62859 v 20.82938 q 0,2.71976 0.92869,3.98013 0.99504,1.19404 3.25045,1.19404 2.0564,0 4.64349,-1.39304 z"
         style="font-family:'Fira Sans';-inkscape-font-specification:'Fira Sans';fill:#ffffff"
         id="path834" />
      <path
         d="m 205.24995,147.58438 q 5.7712,0 10.08301,2.78609 4.37815,2.71976 6.76623,8.02661 2.45442,5.30685 2.45442,12.86911 0,7.42958 -2.45442,12.73643 -2.38808,5.30685 -6.76623,8.09294 -4.31181,2.7861 -10.08301,2.7861 -5.7712,0 -10.14935,-2.71976 -4.31181,-2.71976 -6.76623,-8.02661 -2.38808,-5.30685 -2.38808,-12.80277 0,-7.36325 2.38808,-12.73643 2.45442,-5.37319 6.83257,-8.15928 4.37815,-2.85243 10.08301,-2.85243 z m 0,5.17417 q -5.9702,0 -9.28698,4.51082 -3.31678,4.51082 -3.31678,14.06315 0,9.48599 3.31678,13.93048 3.38311,4.44448 9.28698,4.44448 12.60376,0 12.60376,-18.44129 0,-18.50764 -12.60376,-18.50764 z"
         style="font-family:'Fira Sans';-inkscape-font-specification:'Fira Sans';fill:#ffffff"
         id="path836" />
      <path
         d="m 247.24033,175.37899 12.13942,18.70664 h -7.36325 l -8.55729,-14.79284 -8.68997,14.79284 h -6.8989 l 12.20575,-18.44129 -10.8127,-16.51757 h 7.16424 l 7.29692,12.80277 7.36325,-12.80277 h 6.8989 z"
         style="font-family:'Fira Sans';-inkscape-font-specification:'Fira Sans';fill:#ffffff"
         id="path838" />
      <path
         d="m 280.01004,194.28464 q -2.0564,6.10287 -5.7712,9.61866 -3.64846,3.58212 -10.48102,4.31182 l -0.66336,-4.77617 q 3.44945,-0.59702 5.50586,-1.72472 2.0564,-1.12771 3.25044,-2.91877 1.26038,-1.72473 2.32175,-4.70983 h -2.05641 l -11.7414,-34.95886 h 6.50089 l 9.35332,30.51438 9.15431,-30.51438 h 6.30189 z"
         style="font-family:'Fira Sans';-inkscape-font-specification:'Fira Sans';fill:#ffffff"
         id="path840" />
    </g>
  </g>
</svg>
