<?xml version="1.0" encoding="UTF-8" standalone="no"?>
<!-- Created with Inkscape (http://www.inkscape.org/) -->

<svg
   width="297mm"
   height="210mm"
   viewBox="0 0 297 210"
   version="1.1"
   id="svg5"
   inkscape:version="1.1 (c68e22c387, 2021-05-23)"
   sodipodi:docname="logo_header.svg"
   xmlns:inkscape="http://www.inkscape.org/namespaces/inkscape"
   xmlns:sodipodi="http://sodipodi.sourceforge.net/DTD/sodipodi-0.dtd"
   xmlns="http://www.w3.org/2000/svg"
   xmlns:svg="http://www.w3.org/2000/svg">
  <sodipodi:namedview
     id="namedview7"
     pagecolor="#ffffff"
     bordercolor="#666666"
     borderopacity="1.0"
     inkscape:pageshadow="2"
     inkscape:pageopacity="0.0"
     inkscape:pagecheckerboard="0"
     inkscape:document-units="mm"
     showgrid="false"
     inkscape:zoom="1.5554293"
     inkscape:cx="674.73334"
     inkscape:cy="446.82198"
     inkscape:window-width="3840"
     inkscape:window-height="2050"
     inkscape:window-x="-12"
     inkscape:window-y="-12"
     inkscape:window-maximized="1"
     inkscape:current-layer="layer1" />
  <defs
     id="defs2" />
  <g
     inkscape:label="Ebene 1"
     inkscape:groupmode="layer"
     id="layer1">
    <g
       id="g2300"
       transform="matrix(1.7025722,0,0,1.7025722,-411.61141,-2.1567291)">
      <path
         id="path1182-5"
         style="color:#000000;fill:#1a83d9;fill-rule:evenodd;stroke:none;stroke-width:8.99999;stroke-linecap:square;-inkscape-stroke:none;paint-order:stroke markers fill"
         d="m 352.50893,3.5199131 c -5.29618,0 -10.59244,1.999163 -14.59033,5.997051 l -5.94279,5.9427889 10.16476,10.16475 5.94279,-5.94278 c 2.53985,-2.53986 6.31077,-2.53986 8.85062,0 l 38.64467,38.64466 c 2.53985,2.53985 2.53986,6.31077 0,8.85063 l -8.70438,8.70437 -29.94029,29.939777 c -0.31748,0.31748 -0.65396,0.59543 -1.00511,0.83354 -0.35114,0.23811 -0.71673,0.43657 -1.09192,0.59531 -0.37519,0.15874 -0.76019,0.27772 -1.1498,0.35709 -0.38961,0.0794 -0.78432,0.11885 -1.17874,0.11885 -0.39442,0 -0.78861,-0.0395 -1.17822,-0.11885 -0.38962,-0.0794 -0.77462,-0.19835 -1.1498,-0.35709 -0.37519,-0.15874 -0.74079,-0.3572 -1.09193,-0.59531 -0.35114,-0.23811 -0.68762,-0.51606 -1.0051,-0.83354 l -5.56969,-5.56917 -6.36344,-6.363437 -2.02829,-2.0283 -1.77199,-1.7725 -6.36447,-6.36395 -7.84241,-7.84242 -8.70438,-8.70437 c -2.53986,-2.53986 -2.53986,-6.31078 0,-8.85063 l 16.17369,-16.17369 -10.16476,-10.16475 -16.17369,16.17317 c -7.52619,7.5262 -7.96582,19.65331 -1.32395,27.72027 h -0.004 c 0.41481,0.50392 0.85488,0.99338 1.32499,1.46348 l 16.54679,16.54679 6.36395,6.363957 3.80081,3.8008 6.36343,6.36343 5.56969,5.56969 c 0.49974,0.49974 1.01971,0.96833 1.55753,1.4056 0.53781,0.43727 1.09368,0.84321 1.66449,1.21801 0.57082,0.3748 1.15671,0.71861 1.75545,1.03095 0.59875,0.31233 1.21035,0.59297 1.83193,0.84284 0.62159,0.24987 1.25304,0.46889 1.89239,0.65629 0.63936,0.1874 1.28634,0.34326 1.93839,0.46819 0.65205,0.12493 1.3092,0.21865 1.96887,0.28112 0.65967,0.0625 1.32217,0.0941 1.98437,0.0941 0.66221,0 1.3242,-0.0316 1.98386,-0.0941 0.65967,-0.0625 1.31682,-0.15619 1.96887,-0.28112 0.65206,-0.12493 1.29903,-0.28079 1.93839,-0.46819 0.63935,-0.1874 1.2708,-0.40642 1.89239,-0.65629 0.62159,-0.24987 1.23319,-0.53051 1.83193,-0.84284 0.59874,-0.31234 1.18463,-0.65615 1.75545,-1.03095 0.57081,-0.3748 1.12668,-0.78074 1.66449,-1.21801 0.53782,-0.43727 1.0578,-0.90586 1.55753,-1.4056 l 38.64466,-38.644667 c 0.4701,-0.4701 0.91019,-0.95956 1.32499,-1.46348 h -0.004 c 6.64186,-8.06696 6.20224,-20.19406 -1.32395,-27.72027 L 367.09873,9.5169641 c -3.99789,-3.997891 -9.29363,-5.997051 -14.5898,-5.997051 z" />
      <path
         id="path1190-6"
         style="color:#000000;fill:#00c3c7;fill-rule:evenodd;stroke:none;stroke-width:8.99999;stroke-linecap:square;-inkscape-stroke:none;paint-order:stroke markers fill"
         d="m 305.45133,3.8914681 c -5.29692,-7.94e-4 -10.59398,1.997609 -14.59187,5.995498 L 252.21531,48.531123 c -7.99578,7.99578 -7.99319,21.18797 0.003,29.18375 l 38.64467,38.644657 c 7.99578,7.99579 21.18487,7.99578 29.18064,0 l 5.93917,-5.93917 -10.16526,-10.16527 -5.93918,5.93917 c -2.53985,2.53986 -6.31025,2.53985 -8.8501,0 L 262.38316,67.549593 c -2.53985,-2.53984 -2.54296,-6.31334 -0.003,-8.8532 l 38.64468,-38.64467 c 2.53985,-2.53986 6.31335,-2.53675 8.8532,0.003 l 38.64467,38.64467 c 2.53986,2.53986 2.53985,6.31026 0,8.85011 l -16.17369,16.17369 10.16527,10.16527 16.17369,-16.17369 c 7.99577,-7.99578 7.99578,-21.18487 0,-29.18065 L 320.04321,9.8895511 c -3.99789,-3.997889 -9.29495,-5.997332 -14.59188,-5.998083 z" />
    </g>
  </g>
</svg>
