<?xml version="1.0" encoding="UTF-8" standalone="no"?>
<!-- Created with Inkscape (http://www.inkscape.org/) -->

<svg
   width="210mm"
   height="297mm"
   viewBox="0 0 210 297"
   version="1.1"
   id="svg5"
   inkscape:version="1.1 (c68e22c387, 2021-05-23)"
   sodipodi:docname="smartoxy logo2.svg"
   xmlns:inkscape="http://www.inkscape.org/namespaces/inkscape"
   xmlns:sodipodi="http://sodipodi.sourceforge.net/DTD/sodipodi-0.dtd"
   xmlns="http://www.w3.org/2000/svg"
   xmlns:svg="http://www.w3.org/2000/svg">
  <sodipodi:namedview
     id="namedview7"
     pagecolor="#ffffff"
     bordercolor="#666666"
     borderopacity="1.0"
     inkscape:pageshadow="2"
     inkscape:pageopacity="0.0"
     inkscape:pagecheckerboard="0"
     inkscape:document-units="mm"
     showgrid="false"
     inkscape:zoom="1.5554293"
     inkscape:cx="791.74283"
     inkscape:cy="446.82198"
     inkscape:window-width="3840"
     inkscape:window-height="2050"
     inkscape:window-x="-12"
     inkscape:window-y="-12"
     inkscape:window-maximized="1"
     inkscape:current-layer="layer1" />
  <defs
     id="defs2" />
  <g
     inkscape:label="Ebene 1"
     inkscape:groupmode="layer"
     id="layer1">
    <g
       id="g27952"
       transform="matrix(5.7347918,0,0,5.7347918,-111.45451,-70.48036)">
      <g
         id="rect2339"
         transform="matrix(-0.3287819,-0.3287819,0.3287819,-0.3287819,4.3514288,-10.544291)">
        <path
           style="color:#000000;fill:#ffffff;fill-rule:evenodd;stroke-linecap:square;-inkscape-stroke:none;paint-order:stroke markers fill"
           d="m -126.75,-18.910156 c -5.46626,0 -9.97461,4.50835 -9.97461,9.9746091 V 16.154297 c 0,5.466259 4.50847,9.972656 9.97461,9.972656 h 25.08984 c 5.466142,0 9.97266,-4.506522 9.97266,-9.972656 V -8.9355469 c 0,-5.4661341 -4.506393,-9.9746091 -9.97266,-9.9746091 z m 0,1 h 25.08984 c 4.916188,0 8.97266,4.058304 8.97266,8.9746091 V 16.154297 c 0,4.916305 -4.056347,8.972656 -8.97266,8.972656 H -126.75 c -4.91631,0 -8.97461,-4.056476 -8.97461,-8.972656 V -8.9355469 c 0,-4.9161801 4.05842,-8.9746091 8.97461,-8.9746091 z m 0,5.601562 c -1.89642,0 -3.37305,1.476623 -3.37305,3.3730471 V 16.154297 c 0,1.896424 1.47663,3.373047 3.37305,3.373047 h 25.08984 c 1.896428,0 3.373051,-1.476623 3.373051,-3.373047 V -8.9355469 c 0,-1.8964251 -1.476623,-3.3730471 -3.373051,-3.3730471 z m 0,1 h 25.08984 c 1.40156,0 2.373051,0.971495 2.373051,2.3730471 V 16.154297 c 0,1.401552 -0.971491,2.373047 -2.373051,2.373047 H -126.75 c -1.40155,0 -2.37305,-0.971495 -2.37305,-2.373047 V -8.9355469 c 0,-1.4015521 0.9715,-2.3730471 2.37305,-2.3730471 z"
           id="path27914" />
        <path
           style="color:#000000;fill:#1a83d9;fill-rule:evenodd;stroke-linecap:square;-inkscape-stroke:none;paint-order:stroke markers fill"
           d="m -126.75,-18.410156 c -5.19123,0 -9.47461,4.283384 -9.47461,9.4746091 V 16.154297 c 0,5.191225 4.28338,9.472656 9.47461,9.472656 h 25.08984 c 5.191229,0 9.47266,-4.281431 9.47266,-9.472656 V -8.9355469 c 0,-5.1912251 -4.281431,-9.4746091 -9.47266,-9.4746091 z m 0,6.601562 h 25.08984 c 1.64899,0 2.873051,1.224057 2.873051,2.8730471 V 16.154297 c 0,1.64899 -1.224061,2.873047 -2.873051,2.873047 H -126.75 c -1.64899,0 -2.87305,-1.224057 -2.87305,-2.873047 V -8.9355469 c 0,-1.6489901 1.22406,-2.8730471 2.87305,-2.8730471 z"
           id="path27916" />
      </g>
      <g
         id="rect65"
         transform="matrix(-0.3287819,-0.3287819,0.3287819,-0.3287819,4.3514288,-10.544291)">
        <path
           style="color:#000000;fill:#ffffff;fill-rule:evenodd;stroke-linecap:square;-inkscape-stroke:none;paint-order:stroke markers fill"
           d="m -111.5957,-35.705078 c -6.2359,0 -11.37305,5.137152 -11.37305,11.373047 V 0.7578125 c 0,6.2358943 5.13715,11.3730465 11.37305,11.3730465 h 25.089841 c 6.235894,0 11.375,-5.1366754 11.375,-11.3730465 V -24.332031 c 0,-6.236372 -5.139106,-11.373047 -11.375,-11.373047 z m 0,3.800781 h 25.089841 c 4.146545,0 7.574218,3.426196 7.574218,7.572266 V 0.7578125 c 0,4.1460691 -3.427673,7.5722656 -7.574218,7.5722656 H -111.5957 c -4.14655,0 -7.57227,-3.4257197 -7.57227,-7.5722656 V -24.332031 c 0,-4.146547 3.42572,-7.572266 7.57227,-7.572266 z m 0,2.798828 c -2.58925,0 -4.77344,2.184192 -4.77344,4.773438 V 0.7578125 c 0,2.5892456 2.18419,4.7734375 4.77344,4.7734375 h 25.089841 c 2.589242,0 4.77539,-2.182694 4.77539,-4.7734375 V -24.332031 c 0,-2.590744 -2.186148,-4.773438 -4.77539,-4.773438 z m 0,3.800782 h 25.089841 c 0.708734,0 0.974609,0.265421 0.974609,0.972656 V 0.7578125 c 0,0.7072344 -0.265875,0.9726563 -0.974609,0.9726562 H -111.5957 c -0.70874,0 -0.97266,-0.2639239 -0.97266,-0.9726562 V -24.332031 c 0,-0.708733 0.26392,-0.972656 0.97266,-0.972656 z"
           id="path27922" />
        <path
           style="color:#000000;fill:#00c3c7;fill-rule:evenodd;stroke-width:3.8;stroke-linecap:square;-inkscape-stroke:none;paint-order:stroke markers fill"
           d="m -111.5957,-33.804687 c -5.19123,0 -9.47266,4.28143 -9.47266,9.472656 V 0.7578125 c 0,5.1912253 4.28143,9.4726565 9.47266,9.4726565 h 25.089841 c 5.191225,0 9.474609,-4.2814312 9.474609,-9.4726565 V -24.332031 c 0,-5.191226 -4.283384,-9.472656 -9.474609,-9.472656 z m 0,6.599609 h 25.089841 c 1.64899,0 2.875,1.224056 2.875,2.873047 V 0.7578125 c 0,1.6489906 -1.22601,2.8730469 -2.875,2.8730469 H -111.5957 c -1.64899,0 -2.87305,-1.2240563 -2.87305,-2.8730469 V -24.332031 c 0,-1.648991 1.22406,-2.873047 2.87305,-2.873047 z"
           id="path27924" />
      </g>
    </g>
  </g>
</svg>
